<svg width="30" height="30" viewBox="0 0 30 30" fill="none" xmlns="http://www.w3.org/2000/svg">
<path d="M3.32984 15.8915C3.15962 15.6219 3.07449 15.4871 3.02684 15.2793C2.99105 15.1231 2.99105 14.8769 3.02684 14.7207C3.07449 14.5129 3.15962 14.3781 3.32984 14.1085C4.7366 11.8811 8.92394 6.25 15.3052 6.25C21.6864 6.25 25.8738 11.8811 27.2806 14.1085C27.4508 14.3781 27.5359 14.5129 27.5836 14.7207C27.6193 14.8769 27.6193 15.1231 27.5836 15.2793C27.5359 15.4871 27.4508 15.6219 27.2806 15.8915C25.8738 18.119 21.6864 23.75 15.3052 23.75C8.92394 23.75 4.7366 18.119 3.32984 15.8915Z" stroke="white" stroke-width="2" stroke-linecap="round" stroke-linejoin="round"/>
<path d="M15 18.6875C17.0711 18.6875 18.75 17.0366 18.75 15C18.75 12.9634 17.0711 11.3125 15 11.3125C12.9289 11.3125 11.25 12.9634 11.25 15C11.25 17.0366 12.9289 18.6875 15 18.6875Z" stroke="white" stroke-width="2" stroke-linecap="round" stroke-linejoin="round"/>
</svg>
