<svg width="22" height="23" viewBox="0 0 22 23" fill="none" xmlns="http://www.w3.org/2000/svg">
<path fill-rule="evenodd" clip-rule="evenodd" d="M4.98742 1.18829C8.98369 0.745829 13.0166 0.745829 17.0128 1.18829C19.2255 1.43629 21.0105 3.17875 21.2702 5.39913C21.7437 9.45237 21.7437 13.547 21.2702 17.6002C21.0105 19.8206 19.2255 21.563 17.0128 21.811C13.0166 22.2535 8.98369 22.2535 4.98742 21.811C2.7748 21.563 0.989716 19.8206 0.730091 17.6002C0.256636 13.5474 0.256636 9.45324 0.730091 5.40042C0.861411 4.32171 1.35316 3.31896 2.12565 2.55468C2.89814 1.7904 3.90608 1.30938 4.98613 1.18959M11.0001 5.05038C11.2571 5.05038 11.5035 5.15244 11.6851 5.33412C11.8668 5.51579 11.9689 5.7622 11.9689 6.01913V10.5309H16.4807C16.7376 10.5309 16.984 10.633 17.1657 10.8147C17.3474 10.9963 17.4494 11.2427 17.4494 11.4997C17.4494 11.7566 17.3474 12.003 17.1657 12.1847C16.984 12.3664 16.7376 12.4684 16.4807 12.4684H11.9689V16.9802C11.9689 17.2371 11.8668 17.4835 11.6851 17.6652C11.5035 17.8469 11.2571 17.949 11.0001 17.949C10.7432 17.949 10.4968 17.8469 10.3151 17.6652C10.1334 17.4835 10.0314 17.2371 10.0314 16.9802V12.4684H5.51959C5.26266 12.4684 5.01626 12.3664 4.83458 12.1847C4.6529 12.003 4.55084 11.7566 4.55084 11.4997C4.55084 11.2427 4.6529 10.9963 4.83458 10.8147C5.01626 10.633 5.26266 10.5309 5.51959 10.5309H10.0314V6.01913C10.0314 5.7622 10.1334 5.51579 10.3151 5.33412C10.4968 5.15244 10.7432 5.05038 11.0001 5.05038Z" fill="black"/>
</svg>
